HIERARCHY
ROOT joint_Root
{
	OFFSET 0.0 0.0 0.0
	CHANNELS 6 Xposition Yposition Zposition Zrotation Xrotation Yrotation 
	JOINT Hips
	{
		OFFSET -0.726466 93.3139 -2.00062
		CHANNELS 6 Xposition Yposition Zposition Zrotation Xrotation Yrotation 
		JOINT Spine
		{
			OFFSET 15.7357 0.0 0.0
			CHANNELS 6 Xposition Yposition Zposition Zrotation Xrotation Yrotation 
			JOINT Chest
			{
				OFFSET 8.98455 -0.406207 0.0
				CHANNELS 6 Xposition Yposition Zposition Zrotation Xrotation Yrotation 
				JOINT Neck
				{
					OFFSET 16.3773 0.0 0.0
					CHANNELS 6 Xposition Yposition Zposition Zrotation Xrotation Yrotation 
					JOINT Head
					{
						OFFSET 6.45672 0.0 0.0
						CHANNELS 6 Xposition Yposition Zposition Zrotation Xrotation Yrotation 
						End Site
						{
							OFFSET 0.0 0.0 0.0
						}
					}
				}
				JOINT Shoulder_L
				{
					OFFSET 12.9942 -0.242716 4.98039
					CHANNELS 6 Xposition Yposition Zposition Zrotation Xrotation Yrotation 
					JOINT UpperArm_L
					{
						OFFSET 5.34809 0.0 0.0
						CHANNELS 6 Xposition Yposition Zposition Zrotation Xrotation Yrotation 
						JOINT LowerArm_L
						{
							OFFSET 24.3286 1.87007e-05 0.0
							CHANNELS 6 Xposition Yposition Zposition Zrotation Xrotation Yrotation 
							JOINT Hand_L
							{
								OFFSET 22.2916 0.0 0.0
								CHANNELS 6 Xposition Yposition Zposition Zrotation Xrotation Yrotation 
								End Site
								{
									OFFSET 0.0 0.0 0.0
								}
							}
						}
					}
				}
				JOINT Shoulder_R
				{
					OFFSET 12.9945 -0.242716 -4.98039
					CHANNELS 6 Xposition Yposition Zposition Zrotation Xrotation Yrotation 
					JOINT UpperArm_R
					{
						OFFSET -5.34813 0.0 0.0
						CHANNELS 6 Xposition Yposition Zposition Zrotation Xrotation Yrotation 
						JOINT LowerArm_R
						{
							OFFSET -24.3289 0.000322201 0.0
							CHANNELS 6 Xposition Yposition Zposition Zrotation Xrotation Yrotation 
							JOINT Hand_R
							{
								OFFSET -22.2915 -0.000108084 0.0
								CHANNELS 6 Xposition Yposition Zposition Zrotation Xrotation Yrotation 
								End Site
								{
									OFFSET 0.0 0.0 0.0
								}
							}
						}
					}
				}
			}
		}
		JOINT UpperLeg_L
		{
			OFFSET -2.19248 -6.46944 0.0
			CHANNELS 6 Xposition Yposition Zposition Zrotation Xrotation Yrotation 
			JOINT LowerLeg_L
			{
				OFFSET 39.0811 0.0 -1.23785e-05
				CHANNELS 6 Xposition Yposition Zposition Zrotation Xrotation Yrotation 
				JOINT Foot_L
				{
					OFFSET 40.9854 0.0 -1.26872e-05
					CHANNELS 6 Xposition Yposition Zposition Zrotation Xrotation Yrotation 
					JOINT Toes_L
					{
						OFFSET 11.7543 0.0 0.0
						CHANNELS 6 Xposition Yposition Zposition Zrotation Xrotation Yrotation 
						End Site
						{
							OFFSET 0.0 0.0 0.0
						}
					}
				}
			}
		}
		JOINT UpperLeg_R
		{
			OFFSET -2.19251 6.46944 0.0
			CHANNELS 6 Xposition Yposition Zposition Zrotation Xrotation Yrotation 
			JOINT LowerLeg_R
			{
				OFFSET -39.0811 -0.00228153 -0.0401928
				CHANNELS 6 Xposition Yposition Zposition Zrotation Xrotation Yrotation 
				JOINT Foot_R
				{
					OFFSET -40.9854 0.0 0.0
					CHANNELS 6 Xposition Yposition Zposition Zrotation Xrotation Yrotation 
					JOINT Toes_R
					{
						OFFSET -11.7543 0.0 0.0
						CHANNELS 6 Xposition Yposition Zposition Zrotation Xrotation Yrotation 
						End Site
						{
							OFFSET 0.0 0.0 0.0
						}
					}
				}
			}
		}
	}
}
MOTION
Frames:	9
Frame Time:	0.0333333
0.000000 0.000000 0.000000 0.000000 0.000000 -0.000000 -1.134880 91.992600 1.382190 88.068300 -0.537605 5.727250 15.735700 0.000005 -0.000001 77.704700 87.158300 -77.338000 8.984550 -0.406207 -0.000000 -2.209050 -1.241860 0.709357 16.377300 -0.000001 -0.000001 0.381133 -1.513740 0.418418 6.456720 -0.000001 -0.000000 0.810971 -1.261810 -0.056874 12.994200 -0.242716 4.980390 -83.603200 -12.231200 -62.112900 5.348090 -0.000007 -0.000001 -55.256200 -47.088300 -112.251000 24.328600 0.000019 0.000005 -0.276569 -0.194748 -54.853100 22.291600 -0.000001 0.000005 14.829900 5.589210 -10.717300 12.994500 -0.242716 -4.980390 93.828900 -8.321320 -65.182100 -5.348130 -0.000001 -0.000004 -59.307800 -43.309500 -126.486000 -24.328900 0.000322 -0.000009 -4.314850 -3.872570 -48.159900 -22.291500 -0.000108 -0.000004 14.727600 5.452720 -4.736940 -2.192480 -6.469440 -0.000000 -168.633000 -17.561700 -0.696636 39.081100 -0.000007 -0.000012 -0.184566 0.447534 22.411800 40.985400 -0.000006 -0.000013 -6.688850 -1.152930 -63.683700 11.754300 -0.000000 0.000003 -0.000140 -0.001369 -16.629700 -2.192510 6.469440 -0.000001 173.211000 21.040500 -178.457000 -39.081100 -0.002282 -0.040193 0.017539 -0.037838 20.595700 -40.985400 0.000008 0.000006 -1.474260 1.627720 -64.161100 -11.754300 -0.000006 -0.000006 -0.005103 -0.062463 -19.114600
0.000000 0.000000 0.000000 0.000000 0.000000 -0.000000 -1.161460 91.984000 1.392970 88.030400 -0.562301 5.718670 15.735700 0.000005 -0.000001 77.688200 87.158000 -77.332500 8.984550 -0.406207 -0.000000 -2.208920 -1.242640 0.687446 16.377300 -0.000001 -0.000001 0.297393 -1.555410 0.497034 6.456720 -0.000001 -0.000000 0.737902 -1.273270 -0.114452 12.994200 -0.242716 4.980390 -83.704300 -11.988500 -62.025600 5.348090 -0.000007 -0.000001 -54.380700 -48.108800 -108.584000 24.328600 0.000019 0.000005 -0.357131 -0.261287 -53.813300 22.291600 -0.000001 0.000005 14.776100 5.586740 -10.579700 12.994500 -0.242716 -4.980390 93.688500 -7.963950 -65.047800 -5.348130 -0.000001 -0.000004 -58.787600 -44.257700 -123.331000 -24.328900 0.000322 -0.000009 -4.338210 -4.055090 -47.002700 -22.291500 -0.000108 -0.000004 14.801300 5.444390 -4.440080 -2.192480 -6.469440 -0.000000 -168.570000 -17.596300 -0.728519 39.081100 -0.000007 -0.000012 -0.185208 0.447558 22.480900 40.985400 -0.000006 -0.000013 -6.707080 -1.134020 -63.715300 11.754300 -0.000000 0.000003 -0.000125 -0.001244 -16.625100 -2.192510 6.469440 -0.000001 173.245000 21.050500 -178.446000 -39.081100 -0.002282 -0.040193 0.012559 -0.024600 20.584400 -40.985400 0.000008 0.000006 -1.638000 1.658320 -64.158200 -11.754300 -0.000006 -0.000006 -0.004868 -0.060187 -19.021900
0.000000 0.000000 0.000000 0.000000 0.000000 -0.000000 -1.173810 91.988500 1.413220 88.014200 -0.586004 5.657710 15.735700 0.000005 -0.000001 77.314000 87.161900 -76.978100 8.984550 -0.406207 -0.000000 -2.224810 -1.275440 0.646977 16.377300 -0.000001 -0.000001 0.224517 -1.582310 0.455718 6.456720 -0.000001 -0.000000 0.731266 -1.268080 -0.025938 12.994200 -0.242716 4.980390 -83.806100 -11.756400 -61.958000 5.348090 -0.000007 -0.000001 -53.481500 -49.144500 -104.107000 24.328600 0.000019 0.000005 -0.495495 -0.375902 -52.816800 22.291600 -0.000001 0.000005 14.663500 5.585650 -10.519700 12.994500 -0.242716 -4.980390 93.538400 -7.599910 -64.941800 -5.348130 -0.000001 -0.000004 -58.099700 -45.330100 -119.214000 -24.328900 0.000322 -0.000009 -4.323050 -4.183520 -46.011700 -22.291500 -0.000108 -0.000004 14.973400 5.443620 -4.412860 -2.192480 -6.469440 -0.000000 -168.558000 -17.607900 -0.750577 39.081100 -0.000007 -0.000012 -0.186064 0.450547 22.439600 40.985400 -0.000006 -0.000013 -6.727100 -1.164200 -63.709000 11.754300 -0.000000 0.000003 -0.000141 -0.001380 -16.630100 -2.192510 6.469440 -0.000001 173.274000 21.093100 -178.467000 -39.081100 -0.002282 -0.040193 0.012370 -0.024167 20.529400 -40.985400 0.000008 0.000006 -1.601030 1.746800 -64.147100 -11.754300 -0.000006 -0.000006 -0.004902 -0.060511 -19.035100
0.000000 0.000000 0.000000 0.000000 0.000000 -0.000000 -1.182180 91.986100 1.438070 87.992900 -0.635006 5.605030 15.735700 0.000005 -0.000001 77.173300 87.168600 -76.848200 8.984550 -0.406207 -0.000000 -2.241100 -1.285160 0.625048 16.377300 -0.000001 -0.000001 0.175449 -1.621520 0.472098 6.456720 -0.000001 -0.000000 0.726457 -1.266790 -0.031374 12.994200 -0.242716 4.980390 -83.892000 -11.544400 -61.865900 5.348090 -0.000007 -0.000001 -52.810000 -49.814500 -99.044200 24.328600 0.000019 0.000005 -0.584892 -0.458784 -51.892500 22.291600 -0.000001 0.000005 14.923600 5.583710 -10.413000 12.994500 -0.242716 -4.980390 93.398900 -7.262520 -64.835000 -5.348130 -0.000001 -0.000004 -57.172300 -46.340100 -114.246000 -24.328900 0.000322 -0.000009 -4.243050 -4.256060 -44.983200 -22.291500 -0.000108 -0.000004 15.238500 5.440480 -4.302500 -2.192480 -6.469440 -0.000000 -168.538000 -17.616100 -0.768844 39.081100 -0.000007 -0.000012 -0.186296 0.451007 22.444200 40.985400 -0.000006 -0.000013 -6.751450 -1.199330 -63.742100 11.754300 -0.000000 0.000003 -0.000134 -0.001320 -16.627900 -2.192510 6.469440 -0.000001 173.324000 21.031200 -178.501000 -39.081100 -0.002282 -0.040193 0.011184 -0.021025 20.506100 -40.985400 0.000008 0.000006 -1.660980 1.717130 -64.148500 -11.754300 -0.000006 -0.000006 -0.004993 -0.061400 -19.071300
0.000000 0.000000 0.000000 0.000000 0.000000 -0.000000 -1.183520 91.985600 1.475090 87.993600 -0.709446 5.570710 15.735700 0.000005 -0.000001 77.492200 87.175500 -77.199200 8.984550 -0.406207 -0.000000 -2.248080 -1.248660 0.561544 16.377300 -0.000001 -0.000001 0.190835 -1.646530 0.517272 6.456720 -0.000001 -0.000000 0.675583 -1.317280 0.045707 12.994200 -0.242716 4.980390 -83.904100 -11.515000 -61.853600 5.348090 -0.000007 -0.000001 -52.880300 -50.180300 -93.760800 24.328600 0.000019 0.000005 -0.389169 -0.314352 -51.073100 22.291600 -0.000001 0.000005 15.012900 5.580580 -10.243400 12.994500 -0.242716 -4.980390 93.239700 -6.899660 -64.770600 -5.348130 -0.000001 -0.000004 -56.185900 -47.201300 -108.591000 -24.328900 0.000322 -0.000009 -4.091400 -4.261360 -43.901300 -22.291500 -0.000108 -0.000004 15.067600 5.435620 -4.133210 -2.192480 -6.469440 -0.000000 -168.522000 -17.700300 -0.746514 39.081100 -0.000007 -0.000012 -0.187411 0.454252 22.419900 40.985400 -0.000006 -0.000013 -6.760740 -1.180080 -63.754700 11.754300 -0.000000 0.000003 -0.000122 -0.001217 -16.624100 -2.192510 6.469440 -0.000001 173.334000 20.983700 -178.524000 -39.081100 -0.002282 -0.040193 0.011239 -0.021176 20.503000 -40.985400 0.000008 0.000006 -1.602090 1.764360 -64.168400 -11.754300 -0.000006 -0.000006 -0.004707 -0.058602 -18.957300
0.000000 0.000000 0.000000 0.000000 0.000000 -0.000000 -1.183030 91.983300 1.498350 87.980600 -0.794525 5.523230 15.735700 0.000005 -0.000001 77.875500 87.168700 -77.600300 8.984550 -0.406207 -0.000000 -2.227030 -1.212990 0.526739 16.377300 -0.000001 -0.000001 0.122601 -1.682900 0.497395 6.456720 -0.000001 -0.000000 0.686717 -1.409010 0.111845 12.994200 -0.242716 4.980390 -83.956000 -11.487300 -62.002100 5.348090 -0.000007 -0.000001 -53.162600 -50.646300 -88.047800 24.328600 0.000019 0.000005 -0.144924 -0.120534 -50.257300 22.291600 -0.000001 0.000005 15.021200 5.579280 -10.173600 12.994500 -0.242716 -4.980390 93.105100 -6.595610 -64.718900 -5.348130 -0.000001 -0.000004 -55.587800 -47.814600 -102.675000 -24.328900 0.000322 -0.000009 -3.854430 -4.164970 -42.842200 -22.291500 -0.000108 -0.000004 15.127200 5.431250 -3.982110 -2.192480 -6.469440 -0.000000 -168.519000 -17.666700 -0.760256 39.081100 -0.000007 -0.000012 -0.189062 0.458227 22.421100 40.985400 -0.000006 -0.000013 -6.800000 -1.301440 -63.790800 11.754300 -0.000000 0.000003 -0.000133 -0.001309 -16.627500 -2.192510 6.469440 -0.000001 173.367000 20.951600 -178.570000 -39.081100 -0.002282 -0.040193 0.012422 -0.024340 20.502900 -40.985400 0.000008 0.000006 -1.602270 1.806560 -64.176800 -11.754300 -0.000006 -0.000006 -0.004954 -0.061018 -19.055700
0.000000 0.000000 0.000000 0.000000 0.000000 -0.000000 -1.177320 91.981500 1.524380 87.978500 -0.883849 5.443820 15.735700 0.000005 -0.000001 78.118400 87.147100 -77.845200 8.984550 -0.406207 -0.000000 -2.179810 -1.198120 0.523713 16.377300 -0.000001 -0.000001 -0.071766 -1.709620 0.507166 6.456720 -0.000001 -0.000000 0.699184 -1.403150 0.005129 12.994200 -0.242716 4.980390 -83.994700 -11.474500 -62.129200 5.348090 -0.000007 -0.000001 -53.830800 -51.172200 -81.991900 24.328600 0.000019 0.000005 -0.077166 -0.065791 -49.563600 22.291600 -0.000001 0.000005 15.378700 5.578020 -10.106300 12.994500 -0.242716 -4.980390 92.954400 -6.242120 -64.607900 -5.348130 -0.000001 -0.000004 -55.668000 -48.186500 -97.098800 -24.328900 0.000322 -0.000009 -3.540870 -3.999350 -41.570600 -22.291500 -0.000108 -0.000004 15.183200 5.422020 -3.667120 -2.192480 -6.469440 -0.000000 -168.544000 -17.766100 -0.818209 39.081100 -0.000007 -0.000012 -0.186530 0.451507 22.447200 40.985400 -0.000006 -0.000013 -6.797210 -1.343030 -63.826700 11.754300 -0.000000 0.000003 -0.000129 -0.001275 -16.626200 -2.192510 6.469440 -0.000001 173.379000 20.944900 -178.642000 -39.081100 -0.002282 -0.040193 0.009094 -0.015459 20.480600 -40.985400 0.000008 0.000006 -1.703240 1.864650 -64.156400 -11.754300 -0.000006 -0.000006 -0.004868 -0.060183 -19.021700
0.000000 0.000000 0.000000 0.000000 0.000000 -0.000000 -1.178100 91.986800 1.531440 87.953500 -0.974062 5.345310 15.735700 0.000005 -0.000001 78.649600 87.139800 -78.374100 8.984550 -0.406207 -0.000000 -2.154860 -1.149360 0.529462 16.377300 -0.000001 -0.000001 -0.138865 -1.640190 0.512702 6.456720 -0.000001 -0.000000 0.565931 -1.453060 0.013791 12.994200 -0.242716 4.980390 -84.076500 -11.446700 -62.398900 5.348090 -0.000007 -0.000001 -54.514100 -51.872300 -75.734600 24.328600 0.000019 0.000005 -0.240189 -0.212322 -48.529100 22.291600 -0.000001 0.000005 15.697900 5.573720 -9.880540 12.994500 -0.242716 -4.980390 92.728600 -5.753110 -64.572000 -5.348130 -0.000001 -0.000004 -55.853300 -48.688000 -91.455500 -24.328900 0.000322 -0.000009 -3.416490 -4.044360 -40.237300 -22.291500 -0.000108 -0.000004 15.426900 5.410530 -3.282780 -2.192480 -6.469440 -0.000000 -168.532000 -17.811000 -0.866603 39.081100 -0.000007 -0.000012 -0.187957 0.455880 22.406400 40.985400 -0.000006 -0.000013 -6.815980 -1.373520 -63.826600 11.754300 -0.000000 0.000003 -0.000133 -0.001315 -16.627700 -2.192510 6.469440 -0.000001 173.457000 20.911800 -178.735000 -39.081100 -0.002282 -0.040193 0.012408 -0.024378 20.443900 -40.985400 0.000008 0.000006 -1.607850 1.897750 -64.146300 -11.754300 -0.000006 -0.000006 -0.005128 -0.062703 -19.124400
0.000000 0.000000 0.000000 0.000000 0.000000 -0.000000 -1.155680 91.986500 1.554450 87.937000 -1.100100 5.137150 15.735700 0.000005 -0.000001 79.081900 87.139900 -78.790500 8.984550 -0.406207 -0.000000 -2.146700 -1.108330 0.562053 16.377300 -0.000001 -0.000001 -0.291345 -1.572950 0.556514 6.456720 -0.000001 -0.000000 0.390539 -1.372980 -0.059828 12.994200 -0.242716 4.980390 -84.174200 -11.464400 -62.826600 5.348090 -0.000007 -0.000001 -55.492700 -52.958400 -69.100600 24.328600 0.000019 0.000005 -0.187174 -0.170282 -47.711300 22.291600 -0.000001 0.000005 15.677100 5.567700 -9.571140 12.994500 -0.242716 -4.980390 92.549400 -5.381420 -64.603900 -5.348130 -0.000001 -0.000004 -56.368800 -49.356400 -85.602200 -24.328900 0.000322 -0.000009 -3.603060 -4.401810 -39.357700 -22.291500 -0.000108 -0.000004 15.789000 5.404050 -3.069410 -2.192480 -6.469440 -0.000000 -168.570000 -17.941700 -1.044750 39.081100 -0.000007 -0.000012 -0.189075 0.458280 22.420200 40.985400 -0.000006 -0.000013 -6.816430 -1.383900 -63.857000 11.754300 -0.000000 0.000003 -0.000151 -0.001460 -16.633100 -2.192510 6.469440 -0.000001 173.519000 20.900500 -178.932000 -39.081100 -0.002282 -0.040193 0.009112 -0.015580 20.392700 -40.985400 0.000008 0.000006 -1.682110 2.031920 -64.111800 -11.754300 -0.000006 -0.000006 -0.004965 -0.061123 -19.060000
